<svg data-v-0dd9719b="" version="1.0" xmlns="http://www.w3.org/2000/svg" xmlns:xlink="http://www.w3.org/1999/xlink" width="100%" height="100%" viewBox="0 0 340.000000 250.000000" preserveAspectRatio="xMidYMid meet" color-interpolation-filters="sRGB" style="margin: auto;"> <rect data-v-0dd9719b="" x="0" y="0" width="100%" height="100%" fill="#006eb9" fill-opacity="0" class="background"></rect> <!----> <g data-v-0dd9719b="" fill="#ffffff" class="icon-text-wrapper icon-svg-group iconsvg" transform="translate(77.9739990234375,97.19158172607422)"><g class="iconsvg-imagesvg" transform="translate(0,0)" mask="url(#6125a54e-ee05-490f-9b39-29a596621add)"><g><rect fill="#ffffff" fill-opacity="0" stroke-width="2" x="0" y="0" width="60" height="55.616837070475796" class="image-rect"></rect> <svg x="0" y="0" width="60" height="55.616837070475796" filtersec="colorsb5114369078" class="image-svg-svg primary" style="overflow: visible;"><svg xmlns="http://www.w3.org/2000/svg" viewBox="0 0 352.3299865722656 326.5899963378906"><g><g fill="#ffffff"><path d="M88.21 11.46c6.61 12.06 12.38 22.72 31.52 59.54 2.49-1.42 4.33-2.48 6.76-3.89-10.22-14.16-27.33-37.91-38.28-55.65M130 90.86c21.43 41.22 29.65 56.78 44 83.22 8.46-4.87 13.57-7.9 21.85-12.95C177 135.53 158 110 139.1 84.41a343.9 343.9 0 0 1-9.07 6.44m63.75 118.75c18.92 32.92 28.21 47.94 41.39 67 11.25-6.43 18.35-10.68 29.19-17.52-7.24-11.44-16.24-25.68-45.73-66.63-9.38 6.88-15.42 11.05-24.85 17.19m58.65 87.87c4.82 4.12 8.3 7.09 12.29 5.45 2-1.17 4.66-2.76 6.63-4 4.44-2.86 4.52-2.92 6.74-4.45l.4-.28c1.47-2.11 2.06-3.65-1.85-13-9.19 6.72-15.07 10.67-24.21 16.26M103.27 0c18.87 3.06 40.22 8.15 75.29 33.32 2.38-1.74 4.1-3 6.35-4.73C161.85 16.18 136.56 3.77 103.27 0m84.86 40.7c25.23 21.35 44.77 41 69.95 78.23 7.24-5.53 11.65-9 18.14-14.39-26.78-30.65-48.3-49.13-82.22-70.61-2.12 2.54-3.55 4.19-5.87 6.77m85.59 104.18c18.3 35.16 26.2 57.87 30.17 86.77 9.29-7.15 14.68-11.59 22.17-18.25-1.36-15.4-3.89-44.07-34.26-88.4-6.34 7.47-10.73 12.3-18.09 19.86m30 114c-1.06 1.87-1.07 4.91-1.52 7-1.48 6.82-5.3 13.2-11.35 19l1.27-1.07c5.09-4.45 5.29-4.62 8-7.17 2.22-2.2 5.16-5.16 7.32-7.42 6.73-8.25 12.54-15.37 16.46-31.06-2.26 2.58-9.12 10.42-17.44 18.22-.81.76-2.14 1.56-2.69 2.52M71.38 20.12c-5 13.95-13.27 37.3-11.71 81.93l.79-.36c1.91-.87 3.54-1.69 5.54-2.57-2.25-18.1-6-48.4 5.39-79M61.43 125c5 36.54 11.39 60 25.35 93l2.51-1.06c6.49-2.78 10.6-4.62 17.57-7.87-16-28.19-26.5-50.42-36.31-87.09-3.5 1.25-5.72 2-9.13 3.05M104.9 251.7c10.7 15.84 28.62 42.35 59.65 59.24l3.23-1.25c8.28-3.33 13.66-5.68 23-10.07-23.81-15.33-38.62-29.11-60.95-56.69-9.68 3.83-15.75 6-25 8.77m93.77 70c11.25.44 16.9.67 29.09-2.8 3-1 6.9-2.25 9.83-3.3 7-2.71 7-2.71 10.53-4.26l2.07-.93c-7.3 2.57-13.6 4.78-27.11 2.33a203.14 203.14 0 0 1-24.42 9M58.38 22.86c-18.07 22.36-35.13 46.4-45.43 94.21h.46c1.27-.13 2.12-.24 3.5-.45C21.78 88.84 29 58.76 58.38 22.86m-47.23 105c-4.47 42.52-.7 69.27 14.91 106l1.15.06a58.69 58.69 0 0 0 9.52-.58c-12.52-26.7-23.56-54.75-21.16-103.91a29.29 29.29 0 0 1-4.41-1.58m27.25 128c20 27.54 39.16 46.35 78.29 61l6.58 2.1.3.08c3.16.7 5.62.76 10.52.26-30.62-11.42-53.77-25-81.48-60.36a53.74 53.74 0 0 1-14.22-3.13m129.49 70.58h-1.36l8.82.21 9.52-.27c-3.69 0-8.61.19-12.3 0-1.4 0-3.28.09-4.69.07"></path><path d="M123.57 319.17c40.54 9.36 215.85-96.28 228.76-137.84l-2.66 11.39-1.79 6.28c-16.63 44.9-75 88.48-110.25 106.82-27.72 14.15-52.31 21.31-71.11 20.71-6.62-.54-15.43-1.46-22-2.41-6.41-1.34-14.94-3.26-21.26-5l.3.08M14.41 228.62C38 263.51 308 107.76 325 49.41c10.19 47.24-79.47 135-163.4 179-53.18 27-117.32 45.5-137.87 16.24l-.78-1.2c-2.52-4.31-6-10-8.33-14.42l-.32-.62c.05.07.09.18.13.25M.13 114.62C18.91 130.38 149.92 63 212.54 5.4 207.23 23.24 162.74 76 100.11 109 55.36 131.61 7 142.1 0 114.49l.13.13"></path></g></g></svg></svg> <!----></g></g> <g transform="translate(67,1.1934146881103516)"><g data-gra="path-name" fill-rule="" class="tp-name iconsvg-namesvg"><g transform="scale(1)"><g><path d="M34.58 0.07L9.29 0.07Q6.89 0.07 6.04-1.17 5.2-2.41 5.2-3.9L5.2-3.9 5.2-48.82Q5.2-51.94 8.97-51.94L8.97-51.94Q12.87-51.94 12.87-48.82L12.87-48.82 12.87-6.5 34.58-6.5Q36.92-6.5 36.92-3.31L36.92-3.31Q37.05 0.07 34.58 0.07L34.58 0.07ZM61.88-19.7L61.88-2.6Q61.88 0.52 58.05 0.52L58.05 0.52Q54.21 0.52 54.21-2.6L54.21-2.6 54.21-19.89 39.65-47.58Q39.26-48.43 39.26-49.34L39.26-49.34Q39.26-51.22 41.47-52.13L41.47-52.13 41.41-52.13Q42.84-52.65 43.68-52.65L43.68-52.65Q45.37-52.65 46.28-50.96L46.28-50.96 58.11-28.73Q59.41-31.2 60.91-34.03 62.4-36.86 63.93-39.78 65.46-42.7 66.95-45.57 68.45-48.43 69.81-50.96L69.81-50.96Q70.33-51.74 70.95-52.2 71.56-52.65 72.47-52.65L72.47-52.65Q73.39-52.65 74.62-52.13L74.62-52.13 74.56-52.13Q76.83-51.16 76.83-49.27L76.83-49.27Q76.83-48.88 76.77-48.46 76.7-48.04 76.44-47.58L76.44-47.58Q75.86-46.41 74.98-44.72 74.1-43.03 72.51-40.01 70.92-36.98 68.38-32.14 65.84-27.3 61.88-19.7L61.88-19.7ZM114.72-1.56L100.42-45.24 86.19-1.56 86.19-1.63Q85.8-0.65 85.12-0.03 84.44 0.58 83.46 0.58L83.46 0.58Q82.94 0.58 82.45 0.49 81.96 0.39 81.44 0.26L81.44 0.26 81.51 0.26Q77.8-0.91 78.78-3.9L78.78-3.9 93.6-48.95Q93.92-49.98 94.74-50.7 95.55-51.41 96.66-51.55L96.66-51.55Q97.76-51.74 98.8-51.84 99.84-51.94 100.42-51.94L100.42-51.94Q101.01-51.94 102.05-51.84 103.09-51.74 104.19-51.61L104.19-51.61Q105.1-51.48 105.98-50.64 106.86-49.79 107.31-48.95L107.31-48.95Q110.95-37.77 114.69-26.42 118.43-15.08 122.07-3.9L122.07-3.9Q122.98-0.91 119.34 0.26L119.34 0.26Q118.82 0.39 118.4 0.49 117.97 0.58 117.45 0.58L117.45 0.58Q116.54 0.58 115.8-0.03 115.05-0.65 114.72-1.63L114.72-1.63 114.72-1.56ZM105.3-15.6L105.3-15.6Q105.3-13.52 103.84-12.06 102.38-10.6 100.29-10.6L100.29-10.6Q98.22-10.6 96.78-12.06 95.35-13.52 95.35-15.6L95.35-15.6Q95.35-17.68 96.78-19.14 98.22-20.61 100.29-20.61L100.29-20.61Q102.38-20.61 103.84-19.14 105.3-17.68 105.3-15.6Z" transform="translate(-5.199999809265137, 52.650001525878906)"></path></g> <!----> <!----> <!----> <!----> <!----> <!----> <!----></g></g> <!----></g></g><mask id="6125a54e-ee05-490f-9b39-29a596621add"><g fill="white"><rect fill-opacity="1" stroke-width="2" x="0" y="0" width="60" height="55.616837070475796" class="image-rect"></rect> <svg x="0" y="0" width="60" height="55.616837070475796" filtersec="colorsb5114369078" class="image-svg-svg primary" style="overflow: visible;"><svg xmlns="http://www.w3.org/2000/svg" viewBox="0 0 352.3299865722656 326.5899963378906"><g><g><path d="M88.21 11.46c6.61 12.06 12.38 22.72 31.52 59.54 2.49-1.42 4.33-2.48 6.76-3.89-10.22-14.16-27.33-37.91-38.28-55.65M130 90.86c21.43 41.22 29.65 56.78 44 83.22 8.46-4.87 13.57-7.9 21.85-12.95C177 135.53 158 110 139.1 84.41a343.9 343.9 0 0 1-9.07 6.44m63.75 118.75c18.92 32.92 28.21 47.94 41.39 67 11.25-6.43 18.35-10.68 29.19-17.52-7.24-11.44-16.24-25.68-45.73-66.63-9.38 6.88-15.42 11.05-24.85 17.19m58.65 87.87c4.82 4.12 8.3 7.09 12.29 5.45 2-1.17 4.66-2.76 6.63-4 4.44-2.86 4.52-2.92 6.74-4.45l.4-.28c1.47-2.11 2.06-3.65-1.85-13-9.19 6.72-15.07 10.67-24.21 16.26M103.27 0c18.87 3.06 40.22 8.15 75.29 33.32 2.38-1.74 4.1-3 6.35-4.73C161.85 16.18 136.56 3.77 103.27 0m84.86 40.7c25.23 21.35 44.77 41 69.95 78.23 7.24-5.53 11.65-9 18.14-14.39-26.78-30.65-48.3-49.13-82.22-70.61-2.12 2.54-3.55 4.19-5.87 6.77m85.59 104.18c18.3 35.16 26.2 57.87 30.17 86.77 9.29-7.15 14.68-11.59 22.17-18.25-1.36-15.4-3.89-44.07-34.26-88.4-6.34 7.47-10.73 12.3-18.09 19.86m30 114c-1.06 1.87-1.07 4.91-1.52 7-1.48 6.82-5.3 13.2-11.35 19l1.27-1.07c5.09-4.45 5.29-4.62 8-7.17 2.22-2.2 5.16-5.16 7.32-7.42 6.73-8.25 12.54-15.37 16.46-31.06-2.26 2.58-9.12 10.42-17.44 18.22-.81.76-2.14 1.56-2.69 2.52M71.38 20.12c-5 13.95-13.27 37.3-11.71 81.93l.79-.36c1.91-.87 3.54-1.69 5.54-2.57-2.25-18.1-6-48.4 5.39-79M61.43 125c5 36.54 11.39 60 25.35 93l2.51-1.06c6.49-2.78 10.6-4.62 17.57-7.87-16-28.19-26.5-50.42-36.31-87.09-3.5 1.25-5.72 2-9.13 3.05M104.9 251.7c10.7 15.84 28.62 42.35 59.65 59.24l3.23-1.25c8.28-3.33 13.66-5.68 23-10.07-23.81-15.33-38.62-29.11-60.95-56.69-9.68 3.83-15.75 6-25 8.77m93.77 70c11.25.44 16.9.67 29.09-2.8 3-1 6.9-2.25 9.83-3.3 7-2.71 7-2.71 10.53-4.26l2.07-.93c-7.3 2.57-13.6 4.78-27.11 2.33a203.14 203.14 0 0 1-24.42 9M58.38 22.86c-18.07 22.36-35.13 46.4-45.43 94.21h.46c1.27-.13 2.12-.24 3.5-.45C21.78 88.84 29 58.76 58.38 22.86m-47.23 105c-4.47 42.52-.7 69.27 14.91 106l1.15.06a58.69 58.69 0 0 0 9.52-.58c-12.52-26.7-23.56-54.75-21.16-103.91a29.29 29.29 0 0 1-4.41-1.58m27.25 128c20 27.54 39.16 46.35 78.29 61l6.58 2.1.3.08c3.16.7 5.62.76 10.52.26-30.62-11.42-53.77-25-81.48-60.36a53.74 53.74 0 0 1-14.22-3.13m129.49 70.58h-1.36l8.82.21 9.52-.27c-3.69 0-8.61.19-12.3 0-1.4 0-3.28.09-4.69.07"></path><path d="M123.57 319.17c40.54 9.36 215.85-96.28 228.76-137.84l-2.66 11.39-1.79 6.28c-16.63 44.9-75 88.48-110.25 106.82-27.72 14.15-52.31 21.31-71.11 20.71-6.62-.54-15.43-1.46-22-2.41-6.41-1.34-14.94-3.26-21.26-5l.3.08M14.41 228.62C38 263.51 308 107.76 325 49.41c10.19 47.24-79.47 135-163.4 179-53.18 27-117.32 45.5-137.87 16.24l-.78-1.2c-2.52-4.31-6-10-8.33-14.42l-.32-.62c.05.07.09.18.13.25M.13 114.62C18.91 130.38 149.92 63 212.54 5.4 207.23 23.24 162.74 76 100.11 109 55.36 131.61 7 142.1 0 114.49l.13.13"></path></g></g></svg></svg> </g></mask><defs v-gra="od"></defs></svg>