<svg data-v-0dd9719b="" version="1.0" xmlns="http://www.w3.org/2000/svg" xmlns:xlink="http://www.w3.org/1999/xlink" width="100%" height="100%" viewBox="0 0 340.000000 250.000000" preserveAspectRatio="xMidYMid meet" color-interpolation-filters="sRGB" style="margin: auto;"> <rect data-v-0dd9719b="" x="0" y="0" width="100%" height="100%" fill="#006eb9" fill-opacity="0" class="background"></rect> <!----> <g data-v-0dd9719b="" fill="#ffffff" class="icon-text-wrapper icon-svg-group iconsvg" transform="translate(77.9739990234375,90.8069953918457)"><g class="iconsvg-imagesvg" transform="translate(0,5.884586334228516)" mask="url(#8fb705f6-a7db-4f3e-87aa-950a0e086dc5)"><g><rect fill="#ffffff" fill-opacity="0" stroke-width="2" x="0" y="0" width="60" height="55.616837070475796" class="image-rect"></rect> <svg x="0" y="0" width="60" height="55.616837070475796" filtersec="colorsb7807124805" class="image-svg-svg primary" style="overflow: visible;"><svg xmlns="http://www.w3.org/2000/svg" viewBox="0 0 352.3299865722656 326.5899963378906"><g><g fill="#ffffff"><path d="M88.21 11.46c6.61 12.06 12.38 22.72 31.52 59.54 2.49-1.42 4.33-2.48 6.76-3.89-10.22-14.16-27.33-37.91-38.28-55.65M130 90.86c21.43 41.22 29.65 56.78 44 83.22 8.46-4.87 13.57-7.9 21.85-12.95C177 135.53 158 110 139.1 84.41a343.9 343.9 0 0 1-9.07 6.44m63.75 118.75c18.92 32.92 28.21 47.94 41.39 67 11.25-6.43 18.35-10.68 29.19-17.52-7.24-11.44-16.24-25.68-45.73-66.63-9.38 6.88-15.42 11.05-24.85 17.19m58.65 87.87c4.82 4.12 8.3 7.09 12.29 5.45 2-1.17 4.66-2.76 6.63-4 4.44-2.86 4.52-2.92 6.74-4.45l.4-.28c1.47-2.11 2.06-3.65-1.85-13-9.19 6.72-15.07 10.67-24.21 16.26M103.27 0c18.87 3.06 40.22 8.15 75.29 33.32 2.38-1.74 4.1-3 6.35-4.73C161.85 16.18 136.56 3.77 103.27 0m84.86 40.7c25.23 21.35 44.77 41 69.95 78.23 7.24-5.53 11.65-9 18.14-14.39-26.78-30.65-48.3-49.13-82.22-70.61-2.12 2.54-3.55 4.19-5.87 6.77m85.59 104.18c18.3 35.16 26.2 57.87 30.17 86.77 9.29-7.15 14.68-11.59 22.17-18.25-1.36-15.4-3.89-44.07-34.26-88.4-6.34 7.47-10.73 12.3-18.09 19.86m30 114c-1.06 1.87-1.07 4.91-1.52 7-1.48 6.82-5.3 13.2-11.35 19l1.27-1.07c5.09-4.45 5.29-4.62 8-7.17 2.22-2.2 5.16-5.16 7.32-7.42 6.73-8.25 12.54-15.37 16.46-31.06-2.26 2.58-9.12 10.42-17.44 18.22-.81.76-2.14 1.56-2.69 2.52M71.38 20.12c-5 13.95-13.27 37.3-11.71 81.93l.79-.36c1.91-.87 3.54-1.69 5.54-2.57-2.25-18.1-6-48.4 5.39-79M61.43 125c5 36.54 11.39 60 25.35 93l2.51-1.06c6.49-2.78 10.6-4.62 17.57-7.87-16-28.19-26.5-50.42-36.31-87.09-3.5 1.25-5.72 2-9.13 3.05M104.9 251.7c10.7 15.84 28.62 42.35 59.65 59.24l3.23-1.25c8.28-3.33 13.66-5.68 23-10.07-23.81-15.33-38.62-29.11-60.95-56.69-9.68 3.83-15.75 6-25 8.77m93.77 70c11.25.44 16.9.67 29.09-2.8 3-1 6.9-2.25 9.83-3.3 7-2.71 7-2.71 10.53-4.26l2.07-.93c-7.3 2.57-13.6 4.78-27.11 2.33a203.14 203.14 0 0 1-24.42 9M58.38 22.86c-18.07 22.36-35.13 46.4-45.43 94.21h.46c1.27-.13 2.12-.24 3.5-.45C21.78 88.84 29 58.76 58.38 22.86m-47.23 105c-4.47 42.52-.7 69.27 14.91 106l1.15.06a58.69 58.69 0 0 0 9.52-.58c-12.52-26.7-23.56-54.75-21.16-103.91a29.29 29.29 0 0 1-4.41-1.58m27.25 128c20 27.54 39.16 46.35 78.29 61l6.58 2.1.3.08c3.16.7 5.62.76 10.52.26-30.62-11.42-53.77-25-81.48-60.36a53.74 53.74 0 0 1-14.22-3.13m129.49 70.58h-1.36l8.82.21 9.52-.27c-3.69 0-8.61.19-12.3 0-1.4 0-3.28.09-4.69.07"></path><path d="M123.57 319.17c40.54 9.36 215.85-96.28 228.76-137.84l-2.66 11.39-1.79 6.28c-16.63 44.9-75 88.48-110.25 106.82-27.72 14.15-52.31 21.31-71.11 20.71-6.62-.54-15.43-1.46-22-2.41-6.41-1.34-14.94-3.26-21.26-5l.3.08M14.41 228.62C38 263.51 308 107.76 325 49.41c10.19 47.24-79.47 135-163.4 179-53.18 27-117.32 45.5-137.87 16.24l-.78-1.2c-2.52-4.31-6-10-8.33-14.42l-.32-.62c.05.07.09.18.13.25M.13 114.62C18.91 130.38 149.92 63 212.54 5.4 207.23 23.24 162.74 76 100.11 109 55.36 131.61 7 142.1 0 114.49l.13.13"></path></g></g></svg></svg> <!----></g></g> <g transform="translate(67,0)"><g data-gra="path-name" fill-rule="" class="tp-name iconsvg-namesvg" transform="translate(0,0)"><g transform="scale(1)"><g><path d="M34.58 0.07L9.29 0.07Q6.89 0.07 6.04-1.17 5.2-2.41 5.2-3.9L5.2-3.9 5.2-48.82Q5.2-51.94 8.97-51.94L8.97-51.94Q12.87-51.94 12.87-48.82L12.87-48.82 12.87-6.5 34.58-6.5Q36.92-6.5 36.92-3.31L36.92-3.31Q37.05 0.07 34.58 0.07L34.58 0.07ZM61.88-19.7L61.88-2.6Q61.88 0.52 58.05 0.52L58.05 0.52Q54.21 0.52 54.21-2.6L54.21-2.6 54.21-19.89 39.65-47.58Q39.26-48.43 39.26-49.34L39.26-49.34Q39.26-51.22 41.47-52.13L41.47-52.13 41.41-52.13Q42.84-52.65 43.68-52.65L43.68-52.65Q45.37-52.65 46.28-50.96L46.28-50.96 58.11-28.73Q59.41-31.2 60.91-34.03 62.4-36.86 63.93-39.78 65.46-42.7 66.95-45.57 68.45-48.43 69.81-50.96L69.81-50.96Q70.33-51.74 70.95-52.2 71.56-52.65 72.47-52.65L72.47-52.65Q73.39-52.65 74.62-52.13L74.62-52.13 74.56-52.13Q76.83-51.16 76.83-49.27L76.83-49.27Q76.83-48.88 76.77-48.46 76.7-48.04 76.44-47.58L76.44-47.58Q75.86-46.41 74.98-44.72 74.1-43.03 72.51-40.01 70.92-36.98 68.38-32.14 65.84-27.3 61.88-19.7L61.88-19.7ZM114.72-1.56L100.42-45.24 86.19-1.56 86.19-1.63Q85.8-0.65 85.12-0.03 84.44 0.58 83.46 0.58L83.46 0.58Q82.94 0.58 82.45 0.49 81.96 0.39 81.44 0.26L81.44 0.26 81.51 0.26Q77.8-0.91 78.78-3.9L78.78-3.9 93.6-48.95Q93.92-49.98 94.74-50.7 95.55-51.41 96.66-51.55L96.66-51.55Q97.76-51.74 98.8-51.84 99.84-51.94 100.42-51.94L100.42-51.94Q101.01-51.94 102.05-51.84 103.09-51.74 104.19-51.61L104.19-51.61Q105.1-51.48 105.98-50.64 106.86-49.79 107.31-48.95L107.31-48.95Q110.95-37.77 114.69-26.42 118.43-15.08 122.07-3.9L122.07-3.9Q122.98-0.91 119.34 0.26L119.34 0.26Q118.82 0.39 118.4 0.49 117.97 0.58 117.45 0.58L117.45 0.58Q116.54 0.58 115.8-0.03 115.05-0.65 114.72-1.63L114.72-1.63 114.72-1.56ZM105.3-15.6L105.3-15.6Q105.3-13.52 103.84-12.06 102.38-10.6 100.29-10.6L100.29-10.6Q98.22-10.6 96.78-12.06 95.35-13.52 95.35-15.6L95.35-15.6Q95.35-17.68 96.78-19.14 98.22-20.61 100.29-20.61L100.29-20.61Q102.38-20.61 103.84-19.14 105.3-17.68 105.3-15.6Z" transform="translate(-5.199999809265137, 52.650001525878906)"></path></g> <!----> <!----> <!----> <!----> <!----> <!----> <!----></g></g> <g data-gra="path-slogan" fill-rule="" class="tp-slogan iconsvg-slogansvg" fill="#333" transform="translate(5,60.23000717163086)"><rect x="0" height="1" y="3.580000877380371" width="0.31600189208984375"></rect> <rect height="1" y="3.580000877380371" width="0.31600189208984375" x="106.73600006103516"></rect> <g transform="translate(3.3160018920898438,0)"><g transform="scale(1)"><path d="M1.08 0L1.08-7.87L2.08-7.87L2.08-0.85L5.52-0.85L5.52 0L1.08 0ZM9.50 0.14L9.50 0.14Q8.76 0.14 8.14-0.14Q7.52-0.43 7.08-0.97Q6.64-1.50 6.39-2.26Q6.14-3.02 6.14-3.97L6.14-3.97Q6.14-4.92 6.39-5.67Q6.64-6.42 7.08-6.94Q7.52-7.46 8.14-7.74Q8.76-8.02 9.50-8.02L9.50-8.02Q10.25-8.02 10.87-7.73Q11.48-7.45 11.93-6.93Q12.38-6.41 12.63-5.66Q12.88-4.91 12.88-3.97L12.88-3.97Q12.88-3.02 12.63-2.26Q12.38-1.50 11.93-0.97Q11.48-0.43 10.87-0.14Q10.25 0.14 9.50 0.14ZM9.50-0.73L9.50-0.73Q10.03-0.73 10.46-0.96Q10.88-1.19 11.19-1.61Q11.50-2.04 11.66-2.63Q11.83-3.23 11.83-3.97L11.83-3.97Q11.83-4.70 11.66-5.29Q11.50-5.88 11.19-6.29Q10.88-6.70 10.46-6.92Q10.03-7.14 9.50-7.14L9.50-7.14Q8.98-7.14 8.55-6.92Q8.12-6.70 7.82-6.29Q7.51-5.88 7.34-5.29Q7.18-4.70 7.18-3.97L7.18-3.97Q7.18-3.23 7.34-2.63Q7.51-2.04 7.82-1.61Q8.12-1.19 8.55-0.96Q8.98-0.73 9.50-0.73ZM14.11-3.94L14.11-3.94Q14.11-4.88 14.38-5.64Q14.64-6.40 15.11-6.92Q15.58-7.45 16.22-7.73Q16.86-8.02 17.62-8.02L17.62-8.02Q18.34-8.02 18.88-7.72Q19.42-7.43 19.76-7.04L19.76-7.04L19.20-6.41Q18.89-6.74 18.51-6.94Q18.13-7.14 17.63-7.14L17.63-7.14Q17.06-7.14 16.61-6.92Q16.15-6.70 15.83-6.28Q15.50-5.87 15.32-5.28Q15.14-4.69 15.14-3.96L15.14-3.96Q15.14-3.22 15.32-2.62Q15.49-2.03 15.80-1.61Q16.12-1.19 16.57-0.96Q17.02-0.73 17.58-0.73L17.58-0.73Q18.16-0.73 18.58-0.96Q19.01-1.19 19.39-1.61L19.39-1.61L19.96-1.00Q19.49-0.46 18.90-0.16Q18.31 0.14 17.56 0.14L17.56 0.14Q16.81 0.14 16.18-0.13Q15.55-0.41 15.09-0.93Q14.63-1.45 14.37-2.21Q14.11-2.98 14.11-3.94ZM22.40-3.20L24.77-3.20L24.40-4.40Q24.18-5.06 23.99-5.72Q23.80-6.37 23.60-7.06L23.60-7.06L23.56-7.06Q23.38-6.37 23.18-5.72Q22.99-5.06 22.78-4.40L22.78-4.40L22.40-3.20ZM25.76 0L25.02-2.40L22.15-2.40L21.40 0L20.38 0L23.04-7.87L24.17-7.87L26.83 0L25.76 0ZM27.95 0L27.95-7.87L28.94-7.87L28.94-0.85L32.39-0.85L32.39 0L27.95 0ZM33.78 0L33.78-7.87L34.78-7.87L34.78 0L33.78 0ZM36.36-1.02L36.96-1.72Q37.38-1.27 37.95-1.00Q38.52-0.73 39.13-0.73L39.13-0.73Q39.91-0.73 40.34-1.09Q40.78-1.44 40.78-2.02L40.78-2.02Q40.78-2.32 40.67-2.53Q40.57-2.74 40.40-2.89Q40.22-3.04 39.98-3.16Q39.74-3.28 39.47-3.41L39.47-3.41L38.34-3.90Q38.06-4.02 37.78-4.19Q37.49-4.36 37.26-4.60Q37.03-4.84 36.89-5.17Q36.74-5.50 36.74-5.93L36.74-5.93Q36.74-6.37 36.93-6.76Q37.12-7.14 37.45-7.42Q37.78-7.70 38.23-7.86Q38.68-8.02 39.22-8.02L39.22-8.02Q39.92-8.02 40.52-7.75Q41.12-7.48 41.54-7.04L41.54-7.04L41.00-6.40Q40.64-6.74 40.21-6.94Q39.77-7.14 39.22-7.14L39.22-7.14Q38.56-7.14 38.15-6.83Q37.75-6.53 37.75-5.99L37.75-5.99Q37.75-5.70 37.87-5.50Q37.98-5.30 38.17-5.15Q38.36-5.00 38.59-4.89Q38.82-4.78 39.06-4.68L39.06-4.68L40.18-4.20Q40.51-4.06 40.81-3.87Q41.11-3.68 41.33-3.44Q41.54-3.19 41.67-2.86Q41.80-2.53 41.80-2.10L41.80-2.10Q41.80-1.63 41.61-1.22Q41.42-0.82 41.08-0.51Q40.73-0.20 40.24-0.03Q39.74 0.14 39.12 0.14L39.12 0.14Q38.29 0.14 37.58-0.17Q36.88-0.48 36.36-1.02L36.36-1.02ZM43.34 0L43.34-7.87L47.88-7.87L47.88-7.03L44.34-7.03L44.34-4.56L47.33-4.56L47.33-3.71L44.34-3.71L44.34-0.85L48-0.85L48 0L43.34 0ZM53.36 0L53.36-3.05L51-7.87L52.07-7.87L53.09-5.65Q53.28-5.22 53.46-4.80Q53.64-4.38 53.84-3.94L53.84-3.94L53.89-3.94Q54.10-4.38 54.30-4.80Q54.50-5.22 54.68-5.65L54.68-5.65L55.69-7.87L56.74-7.87L54.37-3.05L54.37 0L53.36 0ZM60.54 0.14L60.54 0.14Q59.80 0.14 59.18-0.14Q58.56-0.43 58.12-0.97Q57.67-1.50 57.43-2.26Q57.18-3.02 57.18-3.97L57.18-3.97Q57.18-4.92 57.43-5.67Q57.67-6.42 58.12-6.94Q58.56-7.46 59.18-7.74Q59.80-8.02 60.54-8.02L60.54-8.02Q61.28-8.02 61.90-7.73Q62.52-7.45 62.97-6.93Q63.42-6.41 63.67-5.66Q63.91-4.91 63.91-3.97L63.91-3.97Q63.91-3.02 63.67-2.26Q63.42-1.50 62.97-0.97Q62.52-0.43 61.90-0.14Q61.28 0.14 60.54 0.14ZM60.54-0.73L60.54-0.73Q61.07-0.73 61.49-0.96Q61.92-1.19 62.23-1.61Q62.53-2.04 62.70-2.63Q62.87-3.23 62.87-3.97L62.87-3.97Q62.87-4.70 62.70-5.29Q62.53-5.88 62.23-6.29Q61.92-6.70 61.49-6.92Q61.07-7.14 60.54-7.14L60.54-7.14Q60.01-7.14 59.59-6.92Q59.16-6.70 58.85-6.29Q58.55-5.88 58.38-5.29Q58.21-4.70 58.21-3.97L58.21-3.97Q58.21-3.23 58.38-2.63Q58.55-2.04 58.85-1.61Q59.16-1.19 59.59-0.96Q60.01-0.73 60.54-0.73ZM65.57-3.25L65.57-7.87L66.56-7.87L66.56-3.23Q66.56-2.52 66.71-2.04Q66.85-1.56 67.10-1.27Q67.34-0.98 67.68-0.86Q68.02-0.73 68.40-0.73L68.40-0.73Q68.80-0.73 69.13-0.86Q69.47-0.98 69.72-1.27Q69.97-1.56 70.12-2.04Q70.26-2.52 70.26-3.23L70.26-3.23L70.26-7.87L71.22-7.87L71.22-3.25Q71.22-2.30 71.00-1.66Q70.79-1.01 70.41-0.61Q70.03-0.20 69.52-0.03Q69 0.14 68.40 0.14L68.40 0.14Q67.80 0.14 67.28-0.03Q66.76-0.20 66.38-0.61Q66-1.01 65.78-1.66Q65.57-2.30 65.57-3.25L65.57-3.25ZM74.34-7.07L74.34-4.14L75.66-4.14Q76.58-4.14 77.08-4.52Q77.57-4.90 77.57-5.66L77.57-5.66Q77.57-6.44 77.08-6.76Q76.58-7.07 75.66-7.07L75.66-7.07L74.34-7.07ZM78.79 0L77.66 0L75.77-3.32L74.34-3.32L74.34 0L73.34 0L73.34-7.87L75.80-7.87Q76.40-7.87 76.91-7.76Q77.42-7.64 77.79-7.38Q78.16-7.12 78.36-6.70Q78.56-6.28 78.56-5.66L78.56-5.66Q78.56-4.74 78.08-4.19Q77.60-3.64 76.80-3.43L76.80-3.43L78.79 0ZM83.72-3.20L86.09-3.20L85.72-4.40Q85.50-5.06 85.31-5.72Q85.12-6.37 84.92-7.06L84.92-7.06L84.88-7.06Q84.70-6.37 84.50-5.72Q84.31-5.06 84.10-4.40L84.10-4.40L83.72-3.20ZM87.08 0L86.34-2.40L83.47-2.40L82.72 0L81.70 0L84.36-7.87L85.49-7.87L88.15 0L87.08 0ZM89.27 0L89.27-7.87L91.68-7.87Q92.33-7.87 92.87-7.75Q93.41-7.63 93.79-7.36Q94.16-7.09 94.37-6.65Q94.58-6.20 94.58-5.56L94.58-5.56Q94.58-4.93 94.37-4.48Q94.16-4.02 93.78-3.72Q93.40-3.42 92.86-3.27Q92.33-3.12 91.68-3.12L91.68-3.12L90.26-3.12L90.26 0L89.27 0ZM90.26-3.94L91.56-3.94Q92.59-3.94 93.09-4.33Q93.59-4.72 93.59-5.56L93.59-5.56Q93.59-6.41 93.08-6.74Q92.58-7.07 91.56-7.07L91.56-7.07L90.26-7.07L90.26-3.94ZM96.18 0L96.18-7.87L98.59-7.87Q99.24-7.87 99.78-7.75Q100.32-7.63 100.70-7.36Q101.08-7.09 101.29-6.65Q101.50-6.20 101.50-5.56L101.50-5.56Q101.50-4.93 101.29-4.48Q101.08-4.02 100.69-3.72Q100.31-3.42 99.77-3.27Q99.24-3.12 98.59-3.12L98.59-3.12L97.18-3.12L97.18 0L96.18 0ZM97.18-3.94L98.47-3.94Q99.50-3.94 100.00-4.33Q100.50-4.72 100.50-5.56L100.50-5.56Q100.50-6.41 100.00-6.74Q99.49-7.07 98.47-7.07L98.47-7.07L97.18-7.07L97.18-3.94Z" transform="translate(-1.08, 8.016)"></path></g></g></g></g></g><mask id="8fb705f6-a7db-4f3e-87aa-950a0e086dc5"><g fill="white"><rect fill-opacity="1" stroke-width="2" x="0" y="0" width="60" height="55.616837070475796" class="image-rect"></rect> <svg x="0" y="0" width="60" height="55.616837070475796" filtersec="colorsb7807124805" class="image-svg-svg primary" style="overflow: visible;"><svg xmlns="http://www.w3.org/2000/svg" viewBox="0 0 352.3299865722656 326.5899963378906"><g><g><path d="M88.21 11.46c6.61 12.06 12.38 22.72 31.52 59.54 2.49-1.42 4.33-2.48 6.76-3.89-10.22-14.16-27.33-37.91-38.28-55.65M130 90.86c21.43 41.22 29.65 56.78 44 83.22 8.46-4.87 13.57-7.9 21.85-12.95C177 135.53 158 110 139.1 84.41a343.9 343.9 0 0 1-9.07 6.44m63.75 118.75c18.92 32.92 28.21 47.94 41.39 67 11.25-6.43 18.35-10.68 29.19-17.52-7.24-11.44-16.24-25.68-45.73-66.63-9.38 6.88-15.42 11.05-24.85 17.19m58.65 87.87c4.82 4.12 8.3 7.09 12.29 5.45 2-1.17 4.66-2.76 6.63-4 4.44-2.86 4.52-2.92 6.74-4.45l.4-.28c1.47-2.11 2.06-3.65-1.85-13-9.19 6.72-15.07 10.67-24.21 16.26M103.27 0c18.87 3.06 40.22 8.15 75.29 33.32 2.38-1.74 4.1-3 6.35-4.73C161.85 16.18 136.56 3.77 103.27 0m84.86 40.7c25.23 21.35 44.77 41 69.95 78.23 7.24-5.53 11.65-9 18.14-14.39-26.78-30.65-48.3-49.13-82.22-70.61-2.12 2.54-3.55 4.19-5.87 6.77m85.59 104.18c18.3 35.16 26.2 57.87 30.17 86.77 9.29-7.15 14.68-11.59 22.17-18.25-1.36-15.4-3.89-44.07-34.26-88.4-6.34 7.47-10.73 12.3-18.09 19.86m30 114c-1.06 1.87-1.07 4.91-1.52 7-1.48 6.82-5.3 13.2-11.35 19l1.27-1.07c5.09-4.45 5.29-4.62 8-7.17 2.22-2.2 5.16-5.16 7.32-7.42 6.73-8.25 12.54-15.37 16.46-31.06-2.26 2.58-9.12 10.42-17.44 18.22-.81.76-2.14 1.56-2.69 2.52M71.38 20.12c-5 13.95-13.27 37.3-11.71 81.93l.79-.36c1.91-.87 3.54-1.69 5.54-2.57-2.25-18.1-6-48.4 5.39-79M61.43 125c5 36.54 11.39 60 25.35 93l2.51-1.06c6.49-2.78 10.6-4.62 17.57-7.87-16-28.19-26.5-50.42-36.31-87.09-3.5 1.25-5.72 2-9.13 3.05M104.9 251.7c10.7 15.84 28.62 42.35 59.65 59.24l3.23-1.25c8.28-3.33 13.66-5.68 23-10.07-23.81-15.33-38.62-29.11-60.95-56.69-9.68 3.83-15.75 6-25 8.77m93.77 70c11.25.44 16.9.67 29.09-2.8 3-1 6.9-2.25 9.83-3.3 7-2.71 7-2.71 10.53-4.26l2.07-.93c-7.3 2.57-13.6 4.78-27.11 2.33a203.14 203.14 0 0 1-24.42 9M58.38 22.86c-18.07 22.36-35.13 46.4-45.43 94.21h.46c1.27-.13 2.12-.24 3.5-.45C21.78 88.84 29 58.76 58.38 22.86m-47.23 105c-4.47 42.52-.7 69.27 14.91 106l1.15.06a58.69 58.69 0 0 0 9.52-.58c-12.52-26.7-23.56-54.75-21.16-103.91a29.29 29.29 0 0 1-4.41-1.58m27.25 128c20 27.54 39.16 46.35 78.29 61l6.58 2.1.3.08c3.16.7 5.62.76 10.52.26-30.62-11.42-53.77-25-81.48-60.36a53.74 53.74 0 0 1-14.22-3.13m129.49 70.58h-1.36l8.82.21 9.52-.27c-3.69 0-8.61.19-12.3 0-1.4 0-3.28.09-4.69.07"></path><path d="M123.57 319.17c40.54 9.36 215.85-96.28 228.76-137.84l-2.66 11.39-1.79 6.28c-16.63 44.9-75 88.48-110.25 106.82-27.72 14.15-52.31 21.31-71.11 20.71-6.62-.54-15.43-1.46-22-2.41-6.41-1.34-14.94-3.26-21.26-5l.3.08M14.41 228.62C38 263.51 308 107.76 325 49.41c10.19 47.24-79.47 135-163.4 179-53.18 27-117.32 45.5-137.87 16.24l-.78-1.2c-2.52-4.31-6-10-8.33-14.42l-.32-.62c.05.07.09.18.13.25M.13 114.62C18.91 130.38 149.92 63 212.54 5.4 207.23 23.24 162.74 76 100.11 109 55.36 131.61 7 142.1 0 114.49l.13.13"></path></g></g></svg></svg> </g></mask><defs v-gra="od"></defs></svg>